<svg width="400.00000000000006" height="400.00000000000006" xmlns="http://www.w3.org/2000/svg" version="1.1">
 <g>
  <title>Layer 1</title>
  <ellipse ry="198.82351" rx="198.66013" id="svg_13" cy="199.99999" cx="200.00649" fill="#877fc4"/>
  <ellipse fill="#302c4c" stroke="#000" cx="200.03771" cy="199.34386" id="svg_8" rx="189.08744" ry="188.39365"/>
  <path id="svg_9" d="m88.97773,127.62568l38.19687,0l11.80313,-33.6131l11.80313,33.6131l38.19686,0l-30.90186,20.7738l11.80374,33.6131l-30.90188,-20.77437l-30.90187,20.77437l11.80374,-33.6131l-30.90187,-20.7738l0.00001,0z" fill="yellow"/>
  <path id="svg_1" fill-rule="evenodd" fill="#677793" d="m86.93808,235.09519c-21.53648,14.27204 -28.59192,42.89078 -11.68126,70.98125c21.80049,36.21351 78.7251,44.17042 122.12138,44.03882c46.78816,-0.14141 100.99142,-5.13153 128.49193,-37.30368c15.53516,-18.16976 15.69777,-52.11333 1.06195,-70.98125c-7.41213,-9.55483 -25.57786,-11.37022 -39.29177,-13.47121c-26.76684,-4.09923 -57.75202,9.57069 -87.56065,6.74849c-43.62776,-4.13069 -87.465,-17.03199 -113.14904,-0.01316l0.00746,0.00075z"/>
  <path id="svg_2" fill="#121923" d="m330.25,221.6c0,13.612 -4.5848,26.354 -17.165,36.284c-21.136,16.684 -59.783,26.442 -100.24,26.442c-40.408,0 -78.029,-10.29 -98.849,-26.94c-12.431,-9.9405 -17.444,-22.148 -17.444,-35.787c0,-12.176 5.7033,-24.135 15.702,-33.188c19.961,-18.072 57.04,-27.873 100.04,-27.873c38.206,0 74.184,9.1701 95.822,23.77c14.91,10.06 22.137,22.408 22.137,37.291l-0.003,0.001z" stroke-width="0"/>
  <circle id="svg_4" fill="#fff" r="34.139" cy="210.29435" cx="172.04349"/>
  <ellipse id="svg_5" ry="17.763" rx="16.653" cy="195.19872" cx="171.32872"/>
  <circle id="svg_6" fill="#fff" r="34.13899" cy="238.98999" cx="263.08697"/>
  <ellipse id="svg_7" ry="17.763" rx="17.208" cy="252.39042" cx="263.81219"/>
  <path id="svg_10" d="m134.64441,49.73607l25.20994,0l7.79006,-21.39016l7.79007,21.39016l25.20993,0l-20.39523,13.21969l7.79047,21.39016l-20.39524,-13.22005l-20.39523,13.22005l7.79047,-21.39016l-20.39524,-13.21969z" fill="blue"/>
  <path id="svg_11" d="m214.6444,46.90929l16.04269,0l4.95731,-14.89672l4.95732,14.89672l16.04268,0l-12.97878,9.20657l4.95757,14.89672l-12.97879,-9.20682l-12.97878,9.20682l4.95757,-14.89672l-12.97879,-9.20657z" fill="yellow"/>
  <path id="svg_3" fill-rule="evenodd" fill="#707d96" d="m215.70983,63.72151c2.33671,8.06306 -7.6977,23.42125 0.5059,30.29607c12.44123,10.42567 34.55312,8.617 54.67189,9.82131c18.39893,1.10153 35.04693,4.93858 42.8121,18.53218c4.44085,7.7742 6.41984,17.84791 3.47802,27.27703c-2.47015,7.91758 -9.02673,15.38087 -14.46357,20.64836c-19.23576,18.63505 -52.82577,21.53836 -79.51289,16.82472c-21.22605,-3.74878 -44.20681,-15.63162 -54.40331,-34.16012c-9.41876,-17.11404 -8.55846,-41.12495 0.82597,-58.25645c8.78915,-16.04493 42.91953,-40.01084 46.08496,-30.9831l0.00092,0l0.00001,0z"/>
  <path id="svg_12" d="m223.6444,95.84043l23.68206,0l7.31794,-24.82786l7.31794,24.82786l23.68206,0l-19.15915,15.34429l7.31832,24.82786l-19.15916,-15.34471l-19.15916,15.34471l7.31832,-24.82786l-19.15916,-15.34429l-0.00001,0z" fill="yellow"/>
 </g>

</svg>